<?xml version="1.0" standalone="no"?>
<!DOCTYPE svg PUBLIC "-//W3C//DTD SVG 20010904//EN"
 "http://www.w3.org/TR/2001/REC-SVG-20010904/DTD/svg10.dtd">
<svg version="1.0" xmlns="http://www.w3.org/2000/svg"
 width="136.000000pt" height="136.000000pt" viewBox="0 0 136.000000 136.000000"
 preserveAspectRatio="xMidYMid meet">

<g transform="translate(0.000000,136.000000) scale(0.100000,-0.100000)"
fill="#000000" stroke="none">
<path d="M611 965 c-51 -90 -98 -168 -105 -173 -6 -4 -38 -17 -71 -27 -86 -28
-157 -99 -180 -179 -22 -76 -9 -221 24 -258 3 -4 60 88 126 204 84 148 127
213 143 219 13 5 47 9 76 9 75 0 202 36 268 76 53 33 104 81 126 121 19 33 20
9 6 -87 -32 -213 -87 -348 -189 -457 -36 -39 -88 -86 -116 -104 -68 -43 -46
-49 30 -9 79 42 154 119 203 208 22 40 41 72 43 70 1 -2 40 -68 85 -148 46
-80 84 -147 86 -148 1 -2 10 0 18 5 14 7 1 35 -80 173 l-96 165 21 85 c31 131
42 217 39 315 l-3 90 -30 -60 c-28 -57 -140 -185 -160 -185 -6 0 -44 59 -85
130 -41 72 -77 130 -80 130 -3 0 -47 -75 -99 -165z m204 -121 c-37 -27 -245
-59 -245 -38 0 7 30 61 103 188 l39 68 60 -103 c56 -94 59 -103 43 -115z
m-354 -139 c-11 -19 -53 -91 -93 -160 -75 -130 -88 -138 -88 -57 0 108 43 182
132 226 68 34 74 33 49 -9z"/>
</g>
</svg>
